<svg xmlns="http://www.w3.org/2000/svg" width="448" height="448"><style>.shp0{fill:#fff}</style><g id="Layer"><path id="Layer" class="shp0" d="M280 308h-16c-4.42 0-8 3.58-8 8s3.58 8 8 8h16c4.42 0 8-3.58 8-8s-3.58-8-8-8z"/><path id="Layer" fill-rule="evenodd" class="shp0" d="M448 216c0 17.94-9.08 34.3-24 43.81v105.52c0 .36-.03.71-.08 1.06C422.68 387.33 405.25 404 384 404v8c0 13.23-10.77 24-24 24s-24-10.77-24-24v-8H112v8c0 13.23-10.77 24-24 24s-24-10.77-24-24v-8c-21.25 0-38.68-16.67-39.92-37.61-.05-.35-.08-.7-.08-1.06V259.81C9.08 250.3 0 233.94 0 216c0-28.67 23.33-52 52-52 1.35 0 2.68.07 4 .17V68c0-30.88 25.12-56 56-56h224c30.88 0 56 25.12 56 56v96.17c1.32-.1 2.65-.17 4-.17 28.67 0 52 23.33 52 52zM72 168c18.77 7.86 32 26.41 32 48v36.02c6.69-5.03 15-8.02 24-8.02h192c9 0 17.31 2.99 24 8.02V216c0-21.59 13.23-40.14 32-48V68c0-22.06-17.94-40-40-40H112c-22.06 0-40 17.94-40 40v100zm24 236H80v8c0 4.41 3.59 8 8 8s8-3.59 8-8v-8zm272 0h-16v8c0 4.41 3.59 8 8 8s8-3.59 8-8v-8zm64-188c0-19.85-16.15-36-36-36s-36 16.15-36 36v68c0 22.06-17.94 40-40 40h-8c-4.42 0-8-3.58-8-8s3.58-8 8-8h8c13.23 0 24-10.77 24-24s-10.77-24-24-24H128c-13.23 0-24 10.77-24 24s10.77 24 24 24h104c4.42 0 8 3.58 8 8s-3.58 8-8 8H128c-22.06 0-40-17.94-40-40v-68c0-19.85-16.15-36-36-36s-36 16.15-36 36c0 13.58 7.53 25.87 19.64 32.06a8 8 0 014.36 7.13V364c0 13.23 10.77 24 24 24h320c13.23 0 24-10.77 24-24V255.19a8 8 0 014.36-7.13C424.47 241.87 432 229.58 432 216z"/></g></svg>