<svg version="1.1" id="Layer_1" xmlns="http://www.w3.org/2000/svg" x="0" y="0" viewBox="-49 141 512 512" xml:space="preserve"><style>.st2{fill:#cad1d8}</style><path d="M79 141c-17.6 0-32 14.4-32 32v448c0 17.6 14.4 32 32 32h320c17.6 0 32-14.4 32-32V269L303 141H79z" fill="#e2e5e7"/><path d="M335 269h96L303 141v96c0 17.6 14.4 32 32 32z" fill="#b0b7bd"/><path class="st2" d="M431 365l-96-96h96z"/><path d="M367 557c0 8.8-7.2 16-16 16H-1c-8.8 0-16-7.2-16-16V397c0-8.8 7.2-16 16-16h352c8.8 0 16 7.2 16 16v160z" fill="#50bee8"/><path d="M83.6 525c-8.1 0-11.3-7.8-6.7-13.3l45.6-60.5H84.8c-11.1 0-10.2-15.7 0-15.7h51.6c9.7 0 12.5 9.2 5.6 16.6l-43.6 56.7H140c10.2 0 11.5 16.3-1 16.3l-55.4-.1zm79.4-80.8c0-10.5 16.9-10.9 16.9 0v73c0 10.6-16.9 10.9-16.9 0v-73zm39.6 0c0-4.2 3.3-8.8 8.7-8.8h29.6c16.6 0 31.6 11.1 31.6 32.5 0 20.2-15 31.5-31.6 31.5h-21.4v16.9c0 5.6-3.6 8.8-8.2 8.8-4.2 0-8.7-3.2-8.7-8.8v-72.1zm16.9 7.2v31.9h21.4c8.6 0 15.4-7.6 15.4-15.5 0-8.9-6.8-16.4-15.4-16.4h-21.4z" fill="#fff"/><path class="st2" d="M351 573H47v16h304c8.8 0 16-7.2 16-16v-16c0 8.8-7.2 16-16 16z"/></svg>