<svg xmlns="http://www.w3.org/2000/svg" viewBox="0 0 196.651 196.651"><path fill="#fdcc9b" d="M83.628 146.386h29.395v32.923H83.628z"/><path d="M83.628 150.264s12.365 7.874 29.395 6.051v-9.929H83.628v3.878z" fill="#fcbc85"/><ellipse cx="41.242" cy="95.336" rx="14.343" ry="16.364" fill="#fcbc85"/><ellipse cx="155.409" cy="95.336" rx="14.343" ry="16.364" fill="#fcbc85"/><path d="M155.352 64.08c0-24.104-17.637-41.74-57.026-41.74S41.3 39.977 41.3 64.08c0 24.104-4.115 87.597 57.026 87.597 61.141 0 57.026-63.492 57.026-87.597z" fill="#fdcc9b"/><ellipse cx="70.55" cy="91.418" rx="6.173" ry="6.761" fill="#3b2519"/><circle cx="67.859" cy="88.433" r="1.846" fill="#fff"/><path d="M60.675 74.662c2.919 1.46 7.606-4.96 18.335.625 1.956 1.018 3.123-8.708-8.377-8.708-9.958 0-11.722 7.202-9.958 8.083z" fill="#86461b"/><ellipse cx="126.864" cy="91.418" rx="6.173" ry="6.761" fill="#3b2519"/><circle cx="124.173" cy="88.433" r="1.846" fill="#fff"/><path d="M135.977 74.662c-2.919 1.46-7.606-4.96-18.335.625-1.956 1.018-3.123-8.708 8.378-8.708 9.957 0 11.72 7.202 9.957 8.083z" fill="#86461b"/><path d="M98.326 115.198c-6.1 0-9.774-4.557-9.774-2.352 0 2.204 1.764 6.393 9.774 6.393s9.774-4.189 9.774-6.393c0-2.204-3.675 2.352-9.774 2.352zm0 20.271c-2.11 0-3.381-1.576-3.381-.813 0 .763.61 2.212 3.381 2.212s3.38-1.449 3.38-2.212c0-.763-1.271.813-3.38.813z" fill="#fcbc85"/><path d="M98.326 129.852c-9.668 0-15.493-3.937-15.493-2.939 0 .997 2.796 4.924 15.493 4.924 12.697 0 15.493-3.927 15.493-4.924-.001-.999-5.825 2.939-15.493 2.939z" fill="#f7945e"/><path d="M98.326 159.613v37.038H26.898c0-14.991 37.623-37.038 71.428-37.038z" fill="#d58e64"/><path d="M98.326 159.613v37.038h71.427c0-14.991-37.624-37.038-71.427-37.038z" fill="#d58e64"/><path d="M98.326 159.613c-7.19 0-14.552 1.005-21.689 2.721.048.063 7.917 10.213 21.689 10.213 12.754 0 21.233-8.692 22.462-10.03-7.378-1.831-15.013-2.904-22.462-2.904z" fill="#bf805a"/><path d="M83.628 160.895s4.299 5.332 14.697 5.332 14.698-5.332 14.698-5.332-15.249-5.551-29.395 0z" fill="#fdcc9b"/><path d="M98.325 139.11v13.669c-30.717 0-40.857-16.378-43.861-20.943-2.227-3.387 14.452 11.904 29.164 11.904 6.467 0 6.173-4.63 14.697-4.63z" fill="#86461b"/><path d="M98.325 139.11v13.669c30.718 0 40.858-16.378 43.861-20.943 2.227-3.387-14.452 11.904-29.164 11.904-6.466 0-6.172-4.63-14.697-4.63zm.387-90.903V0C48.354 0 38.948 18.813 36.596 54.086c-2.352 35.274 2.958 47.417 6.476 47.372 3.518-.046 1.627-40.44 6.458-49.136 8.819-15.873 24.583-4.115 49.182-4.115zm0 0V0c50.358 0 59.764 18.813 62.116 54.086 2.352 35.274-2.958 47.417-6.476 47.372-3.518-.046-1.627-40.44-6.458-49.136-8.818-15.873-24.583-4.115-49.182-4.115z" fill="#86461b"/><path d="M67.014 165.109c-22.206 7.502-40.115 21.199-40.115 31.542h40.117v-31.542h-.002z" fill="#744a25"/><path d="M69.151 196.651v-33.805s-5.732 2.205-7.716 3.233l-5.85 30.571h13.566z" fill="#573514"/><path d="M129.638 165.109c22.206 7.502 40.115 21.199 40.115 31.542h-40.117v-31.542h.002z" fill="#744a25"/><path d="M127.5 196.651v-33.805s5.732 2.205 7.716 3.233l5.85 30.571H127.5z" fill="#573514"/></svg>